<?xml version="1.0" encoding="UTF-8"?>
<svg id="Layer_1" data-name="Layer 1" xmlns="http://www.w3.org/2000/svg" viewBox="0 0 1000 800">
  <defs>
    <style>
      .cls-1 {
        fill: #e7e7e7;
      }
    </style>
  </defs>
  <g id="Layer_1-2" data-name="Layer 1-2">
    <g>
      <path class="cls-1" d="M598.68,314.85l-66.3,19.99,4.13,6.25c6.47-1.9,11.81-2.86,16.03-2.86,3.89,0,7.08.78,9.59,2.32,2.5,1.55,4.33,4.43,5.47,8.65,1.13,4.23,1.71,15.55,1.71,34v125.02c0,10.12-1.05,16.96-3.16,20.52s-5.02,6.13-8.74,7.68c-3.17,1.32-8.68,2.07-16.53,2.26-8.2-.2-13.99-1.01-17.39-2.45-3.97-1.67-6.96-4.19-8.99-7.58-2.03-3.39-3.04-10.2-3.04-20.44v-131.36s-10.68,0-10.68,0l-67.03,19.99,3.4,6.42c6.47-1.78,11.98-2.68,16.52-2.68,4.21,0,7.53.74,9.96,2.23s4.21,4.13,5.34,7.94c1.46,5.23,2.18,16.72,2.18,34.45v63c0,10.12-1.09,16.96-3.27,20.52s-5.15,6.13-8.87,7.68c-2.35.97-6.11,1.64-11.28,2-5.31-.41-9.41-1.23-12.31-2.45-4.38-1.84-7.37-4.07-8.99-6.69-2.1-3.81-3.16-10.83-3.16-21.06v-70.32c0-14.75-1.78-25.58-5.34-32.48-5.34-10.12-12.59-17.4-21.73-21.86-9.15-4.46-19.64-6.69-31.45-6.69s-23.96,2.23-35.45,6.69c-11.5,4.46-25.58,13.83-42.26,28.11-3.4-11.3-10.13-19.93-20.15-25.88-10.04-5.94-22.02-8.93-35.94-8.93-8.25,0-16.6,1.25-25.02,3.75-8.42,2.49-16.27,6.01-23.55,10.53-2.91,1.78-12.47,8.62-28.66,20.52v-34.8s-10.45,0-10.45,0l-67.03,19.99,3.64,6.42c6.31-1.78,11.73-2.68,16.27-2.68,4.21,0,7.53.74,9.96,2.23s4.21,4.19,5.34,8.12c1.46,5.23,2.18,16.84,2.18,34.8v62.47c0,10.12-1.05,16.93-3.16,20.44-2.1,3.51-5.18,6.07-9.23,7.68s-11.17,2.41-21.37,2.41v6.42s110.01,0,110.01,0v-6.42c-12.14,0-20.2-.8-24.17-2.41s-6.97-4.02-8.99-7.23c-2.03-3.22-3.03-10.17-3.03-20.88v-87.63c7.29-6.54,17.65-12.43,31.09-17.67,8.58-3.45,17.24-5.17,25.98-5.17,12.79,0,22.75,3.81,29.87,11.42,5.34,5.83,8.01,15.41,8.01,28.74v70.32c0,9.75-.41,15.65-1.22,17.67-1.78,4.29-4.98,7.49-9.59,9.64-4.61,2.14-13.08,3.22-25.38,3.22v6.42s112.44,0,112.44,0v-6.42c-11.33,0-19.34-.92-24.04-2.77-4.7-1.84-7.89-4.13-9.59-6.87s-2.55-9.7-2.55-20.88v-77.99s-.49-7.68-.49-7.68l.49-1.97c12.3-8.57,22.78-14.42,31.45-17.58,8.66-3.15,17.28-4.73,25.86-4.73,13.93,0,24.04,3.81,30.36,11.42,4.38,5.48,6.56,14.87,6.56,28.2v70.32c0,9.52-.32,15.29-.97,17.31-1.62,4.17-4.29,7.2-8.01,9.1-5.34,2.74-12.8,4.1-22.35,4.1h-4.61v6.42s396.94,0,396.94,0v-6.42c-11.5,0-19.34-.86-23.55-2.58-4.21-1.72-7.33-4.25-9.35-7.58-2.03-3.33-3.03-10.12-3.03-20.35v-193.37s-10.92,0-10.92,0l-66.3,19.99,4.13,6.25c6.47-1.9,11.81-2.86,16.03-2.86,3.89,0,7.08.78,9.59,2.32,2.5,1.55,4.33,4.43,5.47,8.65,1.13,4.23,1.71,15.55,1.71,34v125.02c0,10.12-1.05,16.96-3.16,20.52-2.1,3.57-5.02,6.13-8.74,7.68-3.06,1.27-8.3,2.02-15.72,2.24-8.55-.24-14.57-1.07-18.07-2.51-4.21-1.72-7.33-4.25-9.35-7.58-2.03-3.33-3.03-10.12-3.03-20.35v-193.37s-10.93,0-10.93,0h-.08Z"/>
      <path class="cls-1" d="M836.04,550.17c20.56,0,39.22-3.81,55.98-11.42,16.75-7.61,29.91-18.92,39.47-33.91,9.55-14.99,14.33-29.8,14.33-44.44,0-20.82-8.66-39.26-25.99-55.32-20.4-18.8-47.44-28.2-81.11-28.2-18.46,0-35.94,3.54-52.46,10.62-16.52,7.08-29.83,18.03-39.95,32.84-10.12,14.81-15.17,29.71-15.17,44.71,0,20.58,8.33,39.15,25.02,55.68,19.75,19.64,46.39,29.45,79.9,29.45h0ZM784.31,413.81c5.34-9.39,12.35-15.97,21.01-19.72,8.66-3.75,17.28-5.62,25.86-5.62,17.8,0,32.46,5.71,43.96,17.13,17,16.65,25.5,39.51,25.5,68.54,0,23.2-5.1,39.57-15.3,49.08-10.2,9.52-23.15,14.28-38.85,14.28-21.05,0-38.01-8.62-50.88-25.88-12.87-17.25-19.31-37.77-19.31-61.57,0-14.75,2.67-26.83,8.01-36.23h0Z"/>
      <path class="cls-1" d="M549.33,290.6c-49.06-4.96-56.83-12.48-61.78-61.97h-2.68c-4.93,49.41-12.7,57-61.56,61.97H14.51s0,280.76,0,280.76h970.98s0-280.76,0-280.76h-436.16ZM980.62,566.49H19.38s0-271.01,0-271.01h403.62c49.15,4.96,56.94,11.36,61.88,60.89h2.68c4.96-49.67,12.78-55.93,62.33-60.89h430.72s0,271.01,0,271.01Z"/>
    </g>
  </g>
</svg>